P2
# CREATOR: GIMP PNM Filter Version 1.1
125 70
255
195
195
192
191
187
186
186
185
186
186
189
196
200
200
199
195
181
153
120
126
157
192
207
212
213
214
212
208
205
203
200
143
101
171
175
140
110
95
89
97
155
193
205
205
207
206
205
199
194
192
184
175
167
157
163
168
178
176
169
157
151
145
145
146
147
158
168
179
178
183
183
180
190
187
192
193
190
190
174
166
153
149
139
135
138
134
135
141
151
152
147
145
139
124
116
123
114
109
116
127
142
162
164
157
142
127
106
83
94
109
126
127
117
108
111
108
106
118
128
138
146
138
130
113
97
202
200
199
196
196
197
195
192
194
196
200
201
201
200
199
194
180
154
126
128
157
187
204
215
216
217
216
215
209
205
207
194
112
105
161
107
89
74
65
96
159
189
195
198
204
203
203
203
204
198
197
194
191
187
190
191
187
187
181
176
168
157
150
148
150
158
163
165
175
178
182
186
186
186
186
185
179
174
172
164
151
138
126
123
126
140
145
144
150
148
149
152
148
151
151
143
128
129
133
136
157
169
170
172
156
138
117
87
83
90
88
86
84
75
68
72
98
119
134
145
142
139
127
116
94
195
193
193
196
196
198
202
201
204
208
209
207
207
204
202
197
184
159
126
122
151
183
200
209
211
213
213
214
212
209
198
181
138
98
141
144
63
56
70
144
180
187
188
191
196
198
197
201
204
201
198
196
193
196
198
199
193
190
186
182
177
169
160
163
165
159
159
167
173
180
180
180
184
182
176
171
165
158
154
159
160
151
135
120
136
157
167
157
145
152
151
149
158
163
171
167
161
164
163
164
169
172
179
186
188
174
156
134
86
68
64
62
67
72
81
102
128
155
173
173
158
145
129
121
130
184
185
190
194
194
198
202
206
211
215
216
215
214
210
209
206
194
170
132
122
150
185
200
210
212
213
210
210
207
197
173
148
121
103
117
155
102
66
134
175
190
190
181
178
180
185
191
195
195
193
194
194
195
193
193
189
189
179
186
181
182
180
176
185
191
191
187
189
193
191
184
178
181
181
176
165
159
146
148
159
155
152
150
158
162
164
167
164
159
159
169
172
172
170
171
182
190
192
190
181
173
184
192
197
201
199
195
177
149
126
126
129
126
132
143
164
176
188
190
188
176
156
135
131
144
210
204
204
201
199
196
200
204
207
210
213
215
215
215
215
212
200
180
140
128
153
187
204
214
213
213
211
206
192
168
140
122
104
89
93
145
166
145
172
182
186
186
178
162
164
172
182
185
184
188
192
194
198
200
193
181
178
179
173
181
177
183
190
194
200
205
204
206
213
214
214
207
197
185
177
167
161
155
170
177
177
172
171
183
189
192
188
192
190
185
188
188
184
181
188
198
209
208
204
198
198
202
209
215
216
216
212
202
198
193
186
192
191
182
188
195
199
203
196
192
187
171
150
151
144
241
241
239
238
233
232
229
227
223
221
218
215
210
208
208
204
190
168
138
131
153
189
207
218
220
214
207
192
168
136
112
100
92
70
86
118
167
196
181
183
182
179
166
150
145
151
162
171
177
181
188
194
197
198
193
183
173
168
161
171
180
193
202
217
224
213
211
218
224
228
233
231
220
207
178
176
178
182
192
199
202
181
180
186
195
203
205
209
206
206
209
207
202
206
209
212
220
220
214
213
217
217
219
224
228
225
220
219
218
218
217
217
215
209
205
203
201
204
202
193
185
176
160
155
135
241
242
243
243
244
245
245
246
246
245
243
241
239
235
233
226
208
174
128
125
143
176
200
214
217
208
192
169
139
113
102
87
70
99
146
160
146
176
199
193
188
176
158
140
130
132
147
158
169
173
184
190
194
198
196
184
177
193
219
226
224
233
241
242
241
236
218
201
220
232
241
244
246
244
236
220
200
186
200
213
185
107
135
140
130
176
217
217
215
217
221
221
223
226
226
227
228
228
226
228
227
229
229
229
228
228
225
225
224
226
225
225
223
219
216
215
210
204
202
196
186
175
160
146
132
234
235
237
238
239
240
241
243
244
245
245
247
247
247
245
239
223
196
151
108
137
187
212
222
215
195
171
147
121
96
86
74
101
158
190
196
147
154
188
203
196
183
163
140
130
129
146
159
159
167
182
176
187
189
191
193
223
230
231
225
229
232
242
244
241
238
231
227
226
236
244
247
249
244
235
232
233
242
247
223
177
105
97
101
51
87
162
217
218
220
224
226
229
232
233
235
233
233
233
232
233
232
231
232
228
227
225
224
225
226
226
224
222
221
222
219
216
212
206
204
201
197
187
174
155
220
221
221
223
226
229
230
232
234
236
237
238
239
238
234
225
213
189
152
126
159
194
215
223
214
179
149
124
113
95
80
110
165
183
197
203
190
144
149
195
194
184
168
144
147
185
201
202
174
180
184
209
198
201
213
232
222
222
217
237
235
220
233
244
244
243
240
235
234
240
245
243
242
226
221
203
221
218
226
232
183
107
71
41
44
50
115
190
217
217
220
225
229
233
234
234
233
233
234
234
233
233
231
229
227
225
223
223
223
223
222
222
220
220
220
220
218
218
215
213
214
213
203
197
189
211
210
210
210
212
212
214
215
217
219
221
221
222
222
222
215
206
192
176
164
179
198
207
207
193
159
121
101
92
94
107
202
228
232
229
224
217
195
141
165
209
182
185
170
149
132
132
116
102
106
186
185
221
233
218
219
225
210
215
211
203
194
214
228
238
241
240
233
230
237
241
231
225
215
197
172
158
224
223
221
212
136
72
79
83
117
110
141
212
212
217
224
227
230
232
232
230
231
232
232
232
231
228
227
225
222
221
220
220
219
218
217
217
217
218
219
219
219
218
218
220
220
217
215
208
205
206
209
210
209
210
211
209
210
209
208
207
207
208
209
205
202
199
198
199
203
208
210
197
174
140
105
86
73
71
163
212
227
228
228
227
224
218
175
99
136
196
117
79
69
43
51
70
60
63
106
160
198
206
216
213
201
200
216
176
123
167
189
211
219
227
237
235
223
235
239
222
200
196
136
125
147
219
226
228
206
168
112
102
91
88
150
145
183
217
218
222
224
225
227
227
226
227
228
229
229
227
226
224
220
217
217
217
216
214
214
213
214
214
215
217
219
218
216
216
217
218
220
217
215
205
208
209
209
209
210
210
210
210
210
210
209
209
210
212
213
214
213
214
214
214
217
208
185
156
123
88
76
80
107
195
221
228
227
226
225
225
224
213
115
153
133
81
70
44
30
25
24
31
58
123
148
185
201
211
210
198
219
204
157
101
114
133
182
201
211
230
232
217
233
233
217
198
188
148
141
180
194
200
223
218
179
125
124
94
87
94
165
172
212
216
220
223
222
222
220
218
220
222
224
225
226
224
220
217
216
217
215
216
215
211
210
209
209
213
216
217
214
213
212
213
213
215
215
215
203
208
211
210
207
209
210
210
211
210
210
212
214
215
216
216
218
218
219
220
222
221
208
177
139
113
83
80
83
158
207
222
223
225
225
227
227
228
225
193
148
116
117
125
104
70
64
62
45
42
90
170
178
202
216
204
209
214
198
189
117
100
116
165
189
199
228
230
227
223
232
232
196
194
163
91
76
4
14
54
199
197
143
50
35
60
92
155
187
194
216
217
220
220
216
214
214
213
215
217
219
220
221
218
216
215
215
217
215
213
210
207
204
205
209
211
212
207
206
204
203
205
206
206
210
208
213
213
213
214
214
213
213
215
214
216
217
217
218
219
220
219
220
220
220
221
218
199
165
128
99
80
80
90
181
217
226
227
228
228
228
229
229
219
178
121
139
135
95
93
80
83
78
66
71
85
126
171
193
209
202
186
115
41
12
59
62
108
157
179
210
228
233
227
223
236
231
218
156
125
68
61
234
155
25
88
210
149
79
38
50
78
145
196
191
220
214
218
215
210
206
205
204
205
210
215
217
217
216
214
213
214
216
213
213
210
205
202
201
205
208
208
203
199
196
194
196
200
201
201
217
217
217
219
219
220
220
221
221
221
219
220
222
222
224
225
226
226
226
226
226
220
195
153
126
97
73
70
118
197
222
227
227
229
229
229
229
231
202
129
163
135
98
64
57
40
40
61
71
74
142
139
140
194
196
191
96
12
97
152
92
45
46
93
137
200
231
230
229
223
231
234
231
186
86
60
60
51
110
91
44
197
176
118
56
44
72
123
184
189
217
221
219
215
208
207
209
211
213
218
219
217
216
216
212
209
209
211
210
205
205
201
197
197
203
204
202
199
192
187
185
190
196
199
196
220
222
222
223
222
224
223
223
222
223
222
223
223
226
228
229
228
229
228
227
227
217
187
142
118
98
72
69
138
202
222
225
226
227
228
229
229
227
160
171
162
127
69
49
44
41
43
41
59
116
144
100
142
193
188
133
23
51
83
16
101
16
63
73
112
206
226
227
231
223
224
235
235
216
149
82
62
113
120
70
89
146
161
145
76
43
65
99
162
187
206
234
231
228
224
221
226
230
229
230
229
228
222
218
217
214
210
206
203
199
200
198
195
196
200
203
198
190
183
180
181
186
192
192
186
221
222
223
224
224
224
224
225
224
224
223
224
224
224
226
227
226
228
226
226
224
212
174
129
110
88
78
77
149
208
224
226
228
228
229
229
229
211
167
180
143
97
48
46
40
39
35
48
72
116
119
74
99
159
136
58
45
62
112
99
103
23
54
116
141
208
216
220
227
226
217
225
231
225
194
140
112
55
73
83
112
195
191
145
122
106
61
89
162
191
203
250
248
246
244
242
238
236
236
235
234
232
230
227
221
217
213
209
205
200
197
196
196
195
199
203
202
195
181
177
179
183
187
186
181
219
220
222
222
223
222
224
223
222
224
223
225
225
225
226
226
226
225
226
225
222
207
173
128
112
90
76
84
159
210
226
228
229
230
231
232
232
189
176
165
142
74
43
48
41
37
39
63
90
115
147
70
126
159
165
154
66
71
79
86
49
66
118
146
161
218
216
220
215
214
214
209
203
218
212
201
200
177
128
137
178
194
222
161
142
132
77
94
149
192
195
255
252
252
251
251
249
248
246
243
241
238
234
229
224
221
218
214
212
211
204
202
197
203
203
202
199
196
191
185
183
178
175
175
171
218
219
219
221
220
221
221
222
223
223
224
225
225
225
225
226
226
228
228
228
226
211
175
130
109
91
81
89
159
210
227
229
230
232
232
231
232
162
186
162
138
61
72
64
55
54
66
96
117
147
147
166
191
205
164
154
153
87
55
69
136
172
181
188
179
194
217
212
201
188
196
206
206
214
223
216
212
198
207
201
182
222
225
168
143
134
198
252
128
192
186
255
253
253
253
253
252
252
251
251
250
249
247
245
241
231
226
225
223
222
222
215
212
209
210
208
207
204
201
197
191
185
174
169
164
215
215
217
216
219
221
219
220
221
223
222
222
223
224
225
226
227
229
227
227
225
212
176
121
97
89
83
97
159
203
223
225
226
226
229
229
228
148
185
160
102
78
75
75
83
96
125
122
115
168
188
187
215
204
186
148
153
159
176
193
183
189
200
199
180
177
202
214
197
215
226
229
234
230
240
233
213
207
188
182
187
234
232
162
128
110
254
255
164
163
184
255
254
253
253
253
252
252
253
253
252
252
252
251
248
246
237
233
230
230
230
230
228
225
225
224
224
223
222
219
215
209
203
196
193
213
212
211
212
214
216
217
220
220
220
221
221
222
222
223
226
228
228
227
225
225
213
175
123
103
86
83
95
134
188
215
217
217
220
223
224
212
156
162
152
196
219
148
85
90
116
124
106
102
140
177
200
215
209
215
196
138
160
160
155
161
193
201
193
206
167
212
215
229
224
191
180
180
175
180
212
243
225
180
182
200
232
234
182
98
183
255
255
190
152
168
248
254
254
253
253
253
253
253
253
253
253
252
251
249
245
238
235
234
233
234
234
235
236
236
235
236
236
236
235
234
232
229
226
222
209
210
210
213
212
215
216
217
217
218
219
220
220
222
223
223
224
223
224
220
218
207
179
124
112
103
85
80
101
161
200
209
207
209
211
216
196
132
163
152
227
233
185
94
90
95
109
86
76
132
184
199
215
212
206
219
195
152
143
127
167
214
226
202
207
204
230
225
195
109
135
146
141
137
140
150
160
235
235
177
210
225
229
217
220
255
253
254
210
135
155
225
254
253
253
253
253
253
252
253
252
252
250
248
245
241
237
236
236
235
236
237
237
238
238
240
240
240
239
239
238
237
236
235
232
208
211
211
214
213
215
213
214
215
215
216
216
218
219
217
218
219
219
219
218
214
205
180
133
112
96
82
75
78
135
187
206
209
215
219
231
187
142
164
155
249
248
247
151
78
97
93
83
67
151
216
209
216
215
212
221
212
139
120
158
230
230
197
204
211
220
214
176
94
89
132
129
121
107
118
119
128
153
246
228
230
222
234
212
255
254
254
254
210
128
138
200
255
252
253
253
252
252
252
252
250
247
244
240
234
232
233
234
234
234
235
236
237
237
238
237
239
238
238
238
237
236
236
235
234
212
212
214
213
214
214
214
211
210
210
211
210
209
207
210
208
210
209
210
209
209
200
186
148
110
99
88
79
67
107
193
237
240
242
245
238
147
153
165
157
255
252
252
255
255
255
254
125
71
178
206
204
219
222
206
186
189
218
227
219
198
173
193
209
216
217
218
59
82
82
43
39
48
59
50
39
39
64
193
230
241
245
227
221
254
254
254
254
195
127
127
173
255
252
252
252
252
252
250
248
242
237
231
228
227
227
228
230
231
232
232
233
232
232
232
233
234
233
233
233
233
234
234
232
233
204
204
206
208
208
209
208
207
207
205
206
203
197
193
192
192
193
193
196
199
202
213
214
173
114
103
91
80
76
86
170
236
250
250
250
230
134
155
161
158
255
253
253
253
255
251
251
187
84
199
180
160
211
215
218
228
227
227
226
221
220
215
215
207
217
210
216
60
40
33
8
14
37
39
46
10
16
47
152
226
234
239
218
230
254
254
253
254
219
120
127
145
242
253
253
252
250
248
243
234
227
221
220
218
219
220
220
220
221
223
223
224
224
223
224
225
225
225
228
229
230
231
231
230
230
196
199
194
191
195
196
196
196
193
193
190
189
188
185
186
195
208
218
226
234
241
243
244
224
154
106
84
73
74
78
135
215
249
252
253
219
141
146
165
154
255
253
253
253
254
245
233
141
63
198
158
159
198
212
212
232
248
238
226
231
238
232
186
202
213
207
200
92
39
38
11
2
37
37
48
4
15
36
180
234
215
235
217
244
254
253
253
253
255
127
117
139
225
252
250
248
243
237
226
216
212
209
210
210
211
211
212
212
211
211
213
211
213
215
216
215
217
218
222
225
227
228
227
227
224
191
184
185
180
182
182
181
174
178
193
208
221
228
233
238
240
243
245
247
249
250
251
250
248
222
118
81
69
74
87
97
156
222
250
255
190
122
140
162
170
255
253
253
253
250
221
210
105
58
138
184
189
188
201
216
231
207
199
211
223
217
218
203
189
196
203
170
178
39
45
20
43
36
33
40
75
108
93
246
227
206
204
208
250
252
252
253
252
253
213
96
111
196
251
242
233
225
216
210
204
203
204
206
206
206
205
207
207
207
208
207
206
208
208
209
211
213
215
218
221
222
223
222
221
218
193
188
180
177
178
185
195
210
225
234
240
245
247
248
249
250
250
250
252
251
252
251
252
251
248
203
88
78
85
88
83
84
138
206
249
167
121
143
150
211
253
252
252
253
144
241
234
117
78
60
165
189
208
204
223
195
144
187
209
217
217
187
170
145
174
179
202
183
119
51
81
46
34
32
39
44
45
124
216
234
224
174
231
253
251
251
251
251
252
255
159
99
164
241
227
217
210
205
201
201
202
203
203
205
205
207
208
207
205
206
207
205
206
207
207
208
209
209
211
213
215
217
215
214
213
189
192
195
207
220
230
236
241
245
247
249
249
250
251
251
251
251
250
251
251
251
252
252
251
251
246
187
73
76
83
83
79
69
96
161
152
130
147
120
234
211
197
186
167
146
255
104
132
78
69
93
180
204
188
206
146
161
203
202
224
223
188
174
209
213
207
190
166
142
74
33
33
39
35
42
41
72
185
216
229
226
130
249
249
251
250
250
249
249
249
250
111
176
228
214
207
202
200
198
198
199
200
202
204
205
207
205
205
204
204
206
206
205
206
207
207
207
206
205
206
207
208
207
207
207
218
228
236
240
243
246
248
248
249
249
250
250
251
250
251
251
251
251
250
251
251
251
252
252
253
251
244
176
71
81
83
80
78
68
71
128
120
125
134
143
139
139
141
124
254
119
49
109
74
69
98
166
201
183
195
98
64
83
149
183
228
184
187
162
170
178
194
161
110
106
64
43
36
36
50
63
105
138
187
222
229
119
250
248
249
249
248
247
245
241
235
229
217
212
206
201
197
197
199
201
201
201
202
202
203
203
205
204
206
205
205
204
206
208
207
205
203
202
201
200
200
201
200
200
200
242
246
248
249
248
248
249
249
249
249
250
251
251
251
251
251
251
251
252
252
252
252
251
251
251
251
251
244
178
75
82
82
85
88
82
106
83
110
110
126
127
129
133
203
226
36
65
124
84
57
89
165
210
185
158
44
72
59
45
94
162
197
161
178
201
184
167
152
89
70
63
61
57
37
68
93
83
125
189
211
191
205
246
251
249
249
247
246
238
231
222
214
208
206
200
200
201
201
202
202
201
202
202
201
201
204
205
203
201
201
201
202
202
204
204
201
199
199
197
195
195
196
195
196
195
248
248
248
249
248
248
248
249
249
250
250
251
251
251
251
251
251
251
252
252
252
252
252
252
251
252
252
251
242
163
65
80
92
86
81
80
103
97
99
100
111
116
118
128
66
79
33
117
93
74
83
147
167
180
152
100
36
43
64
14
53
145
195
170
164
155
147
102
90
71
69
75
77
54
87
71
117
132
175
192
210
249
249
247
248
248
246
241
234
224
214
207
206
203
204
203
203
204
202
199
200
199
199
198
200
201
202
201
202
199
197
196
200
201
201
199
198
194
192
191
190
190
193
195
193
248
249
248
248
248
248
249
249
249
249
250
250
251
251
251
251
250
251
251
251
251
251
251
251
252
252
251
252
251
241
151
80
82
79
84
91
92
83
79
89
98
110
103
190
72
114
74
139
109
68
79
115
151
161
162
148
65
36
65
31
7
31
119
150
159
158
130
102
109
90
91
93
66
85
125
144
58
93
125
159
245
244
248
246
247
245
241
234
225
215
206
204
203
203
203
206
205
203
198
194
193
192
190
192
194
196
196
198
198
196
195
193
197
199
198
198
197
194
191
189
191
190
193
195
194
248
248
249
249
249
249
249
250
250
250
251
251
251
251
251
251
251
251
251
251
251
251
251
251
251
251
251
251
252
252
221
104
83
82
87
86
77
70
79
102
109
99
84
114
66
124
131
128
106
65
64
92
135
141
165
163
146
31
54
29
8
12
88
42
65
82
62
47
48
32
28
36
51
78
133
137
80
74
119
238
248
246
247
244
241
240
233
223
214
206
203
201
202
202
203
203
203
200
197
195
192
189
190
190
191
195
197
197
195
192
192
193
193
194
196
197
197
197
196
195
195
197
197
195
196
248
248
248
249
249
250
250
250
251
251
251
251
251
251
251
251
251
251
251
251
252
251
252
252
251
251
251
251
253
247
194
94
86
84
83
79
71
71
92
102
97
79
69
119
66
131
86
134
118
83
58
74
100
141
159
160
160
131
38
39
23
0
115
131
44
117
83
57
52
43
21
33
53
91
113
112
116
86
146
250
246
244
244
242
240
233
228
214
206
203
203
201
200
200
202
203
207
205
200
193
191
190
190
190
192
194
196
193
193
190
192
192
191
194
193
195
195
194
196
197
200
201
201
200
202
248
248
249
249
250
250
250
250
251
251
251
251
251
251
251
251
251
252
252
251
252
252
252
252
251
251
251
251
252
228
137
78
84
81
80
82
78
100
92
81
74
71
83
93
87
138
96
115
141
79
60
45
88
132
148
163
159
155
98
73
65
3
110
143
32
100
101
71
68
48
25
43
67
104
143
152
128
48
91
252
243
242
240
239
236
229
221
211
206
205
205
205
202
199
202
207
207
204
200
197
191
191
191
192
193
192
192
192
194
193
192
195
197
197
197
194
191
193
195
199
204
205
202
201
199
248
248
249
249
250
249
250
250
250
250
250
250
251
251
250
250
251
251
251
251
251
251
251
251
251
251
251
252
247
192
87
82
81
79
93
94
97
89
65
61
72
78
83
84
68
148
110
98
130
81
60
38
75
119
146
158
165
165
169
92
49
68
72
188
108
29
137
96
61
68
31
47
74
125
163
134
142
74
124
250
240
238
238
237
231
226
219
210
207
208
206
202
199
200
203
204
203
203
202
198
192
192
192
189
191
193
194
196
195
194
194
194
197
195
194
195
195
197
199
204
205
206
204
201
195
248
248
249
249
249
249
248
249
248
248
249
248
249
249
250
250
250
250
250
249
249
250
249
250
250
250
250
250
230
146
75
83
81
98
105
99
88
63
51
77
78
73
89
82
55
108
131
109
119
77
52
39
57
120
127
158
173
169
165
134
67
51
64
137
72
8
147
107
86
78
47
52
90
114
162
81
112
49
215
239
239
238
239
237
232
226
216
206
201
201
202
203
201
202
200
202
204
206
203
200
195
194
190
189
187
187
192
192
192
190
190
189
192
193
194
193
196
198
199
202
201
200
199
196
195
245
244
245
246
245
246
246
246
246
247
247
247
247
248
248
249
248
248
247
248
248
247
248
248
248
249
249
246
207
108
84
86
97
105
97
89
69
56
84
85
82
96
88
78
62
71
126
114
105
75
41
40
59
108
127
136
161
172
173
167
130
85
66
47
42
22
149
122
99
90
90
60
98
128
155
173
62
102
238
242
240
241
240
239
235
228
217
204
199
201
205
203
199
193
193
196
200
202
202
198
194
195
190
187
186
190
189
194
194
194
191
186
185
190
194
193
193
196
196
197
197
198
198
197
197
241
240
240
240
239
240
241
242
243
245
246
247
247
248
249
249
248
248
247
246
246
246
246
246
247
246
247
240
187
87
86
90
103
96
87
74
56
68
80
88
121
115
95
86
68
95
102
106
109
60
38
38
53
107
132
126
140
165
172
176
175
106
109
48
52
36
161
134
118
106
121
63
123
137
155
177
110
118
242
243
243
243
243
242
239
230
220
204
200
199
204
203
198
197
197
199
196
194
194
193
193
190
188
187
187
189
190
195
195
193
193
192
188
190
189
188
190
193
194
194
195
195
200
201
199
238
237
237
236
236
236
238
239
241
243
245
247
247
248
248
249
249
248
248
247
246
247
246
246
246
245
246
235
173
78
82
100
99
90
74
57
58
73
83
112
129
104
84
74
77
80
55
111
100
89
35
44
65
120
140
137
132
154
170
174
177
183
87
68
58
117
162
135
130
129
129
84
123
130
157
161
183
172
242
242
243
244
244
243
240
231
222
210
199
202
204
200
201
201
198
196
199
195
196
196
193
189
189
191
193
191
191
196
193
194
196
197
195
189
188
190
195
196
197
196
193
195
199
202
200
235
235
234
234
234
234
236
237
239
241
242
245
245
247
247
248
248
248
248
248
248
248
247
247
246
246
246
233
168
76
83
101
92
79
65
53
64
76
103
144
143
102
88
85
91
64
75
80
104
94
83
49
33
115
139
140
133
149
160
175
174
173
180
93
130
120
161
163
162
155
139
134
117
134
151
153
171
188
203
245
243
244
244
244
242
236
228
215
198
200
198
193
197
198
196
196
199
199
198
198
197
192
193
193
191
192
192
190
189
190
196
195
196
192
187
192
194
195
195
197
197
193
196
197
196
233
234
233
234
234
235
235
236
238
238
239
240
241
242
244
245
246
248
247
247
248
247
248
247
247
246
245
232
166
74
83
95
79
70
56
53
71
79
148
168
162
117
92
79
65
77
73
56
70
99
89
80
65
55
108
151
155
151
159
169
173
174
176
153
74
162
172
179
183
185
170
163
118
154
162
151
144
165
197
226
245
244
245
245
244
240
233
223
205
198
193
192
192
193
197
197
200
197
196
197
196
193
195
195
195
191
188
184
182
185
191
192
191
192
188
190
192
194
195
196
198
195
194
192
188
231
232
233
233
233
235
235
235
236
236
237
238
239
240
242
244
245
246
246
246
247
247
246
246
246
245
245
231
168
75
85
86
72
60
50
55
73
104
166
181
178
131
91
92
106
95
57
61
42
61
85
80
76
71
51
40
100
142
165
178
175
178
175
184
115
154
190
193
179
175
186
177
151
159
159
159
149
153
184
216
247
245
246
246
246
243
233
221
206
187
186
185
188
191
194
192
195
194
194
196
197
195
194
196
196
192
189
185
183
181
183
187
187
186
183
182
186
191
192
193
194
196
194
193
189
228
231
231
232
233
234
234
235
235
237
237
238
238
240
240
242
242
242
244
243
244
244
244
244
244
244
243
223
163
91
95
82
70
56
49
61
75
132
178
189
169
144
112
104
109
91
40
57
50
23
33
72
78
74
72
70
62
44
44
92
151
171
180
174
165
132
201
202
194
187
188
179
176
168
169
171
166
170
184
209
250
245
244
244
244
237
228
217
197
180
179
182
185
189
190
191
187
186
196
195
199
202
196
197
196
196
195
193
189
185
188
188
187
189
186
184
186
192
193
188
190
191
195
195
192
227
230
231
232
233
234
234
233
234
234
236
236
238
238
239
239
239
240
240
240
240
240
242
241
241
242
231
196
140
103
98
77
61
50
51
67
92
161
186
180
192
164
123
109
122
93
52
59
43
23
25
31
60
74
70
69
68
61
63
60
69
82
102
123
142
135
135
208
201
187
189
189
174
178
182
176
164
158
187
230
243
243
243
241
240
236
231
222
209
188
168
178
184
185
181
181
184
189
193
199
204
205
201
196
195
197
199
197
194
194
192
191
191
193
190
193
194
195
194
192
192
188
193
195
198
226
229
230
232
234
233
231
231
231
233
235
236
237
237
237
238
238
238
238
239
239
239
239
238
238
234
210
165
132
114
97
73
56
51
50
66
97
172
185
187
191
172
129
95
101
98
86
76
53
19
20
35
53
70
65
67
68
66
62
62
65
60
63
72
75
145
94
114
209
189
185
187
186
187
188
181
175
171
205
247
242
242
241
239
239
237
235
230
221
207
193
171
180
181
178
179
182
189
191
196
197
198
199
196
195
192
191
195
196
196
193
189
191
190
188
192
193
195
196
195
190
187
191
199
199
228
231
232
233
233
233
233
233
234
235
237
238
238
238
238
238
238
238
238
238
238
238
237
237
238
226
187
145
133
125
97
65
51
49
49
72
126
181
191
196
193
175
127
105
103
106
116
87
64
16
19
38
40
79
108
94
77
63
60
54
57
62
62
72
89
142
145
62
130
208
190
191
195
198
204
210
204
199
238
243
245
245
244
243
241
241
240
238
234
225
213
198
176
172
172
175
178
182
186
187
190
193
193
190
190
190
187
191
193
192
194
193
189
188
189
191
189
192
192
190
187
187
192
192
192
230
232
233
232
232
232
233
234
234
236
236
237
238
238
238
238
238
238
238
237
237
236
236
237
236
216
170
140
141
128
90
61
50
50
56
85
139
182
187
196
185
174
148
124
116
118
124
103
76
22
21
24
38
42
76
110
135
142
142
144
137
144
160
170
156
190
215
90
52
156
218
209
213
190
196
143
117
230
247
248
246
246
246
245
245
244
244
242
240
236
229
220
205
179
166
173
179
184
190
188
187
186
185
184
185
181
183
186
191
197
196
198
198
194
194
190
189
187
188
186
184
187
188
190
189
229
232
233
233
233
234
234
234
234
234
235
236
237
237
237
237
237
236
236
235
233
233
235
236
232
201
151
141
139
117
79
59
46
45
50
96
155
184
188
192
185
167
133
124
102
105
133
133
99
22
30
37
50
59
72
84
100
133
151
156
163
177
184
179
185
200
201
212
105
55
63
103
107
114
62
73
208
247
248
248
246
246
246
246
245
246
245
244
243
241
238
233
223
208
186
174
186
188
191
184
183
184
185
183
181
178
181
183
191
194
197
199
200
198
195
193
189
185
182
180
179
184
189
192
192
225
228
229
229
230
231
230
230
230
230
229
230
231
232
232
231
230
229
229
229
227
228
229
230
218
180
134
142
140
122
75
57
48
47
66
113
154
181
192
193
191
157
147
109
99
80
105
140
121
38
18
41
49
62
76
87
92
104
127
146
160
176
189
193
205
204
207
201
217
179
135
104
83
109
169
237
245
247
246
246
246
245
245
245
246
245
244
243
243
243
241
238
235
227
217
202
180
182
179
182
181
182
188
184
182
181
182
188
191
194
194
194
197
198
194
190
186
183
177
180
184
192
192
194
193
227
228
229
229
230
230
231
231
231
231
231
231
232
232
233
232
232
230
228
229
228
229
230
231
210
161
127
134
136
121
72
55
50
50
74
131
166
178
195
194
186
172
149
120
101
85
87
135
137
70
29
38
45
47
69
84
72
88
111
125
158
174
191
194
210
205
213
211
196
147
227
249
253
251
244
246
247
247
246
247
246
246
247
247
247
246
245
244
243
244
244
242
239
236
231
220
207
184
172
172
176
180
178
181
177
177
183
189
192
192
190
191
197
199
197
185
181
185
184
186
189
191
197
195
192
230
231
231
232
232
234
233
235
234
235
234
234
234
234
234
234
233
233
231
231
231
232
233
232
210
152
127
133
132
123
73
50
50
52
76
132
168
191
192
188
184
172
138
147
112
79
88
116
146
78
34
35
48
56
68
46
77
95
95
126
137
163
182
194
204
205
211
184
161
167
240
246
247
247
245
246
245
247
247
246
247
247
247
247
247
246
245
245
244
244
244
243
242
240
237
233
221
209
184
163
173
175
169
169
170
173
179
187
190
189
190
193
194
194
193
189
190
191
192
189
192
194
196
197
194
230
231
232
233
234
234
235
235
236
235
234
234
234
234
234
233
233
233
233
233
234
234
235
233
207
148
124
129
130
128
86
50
51
53
77
135
171
195
193
196
186
169
133
126
84
71
81
84
154
90
38
27
58
61
56
56
70
67
71
101
128
140
179
190
194
195
168
121
123
152
234
246
247
246
246
246
247
246
247
247
248
247
248
247
247
246
245
245
244
244
245
244
243
242
241
238
234
225
211
191
161
162
163
166
171
173
177
183
185
182
183
187
193
195
189
186
187
188
191
188
191
195
195
196
194
229
230
231
230
232
231
232
234
233
233
233
231
231
232
231
231
231
232
232
233
234
233
233
230
204
142
121
127
127
130
104
53
51
55
84
136
173
196
193
186
177
160
152
131
81
81
75
62
123
97
67
40
54
59
57
64
47
53
78
97
142
182
192
196
173
140
132
96
153
143
228
245
246
246
246
246
246
246
246
246
246
247
247
247
246
246
245
245
245
245
245
244
243
243
242
240
239
235
229
218
201
166
152
152
162
173
171
172
175
178
181
184
189
191
192
182
182
180
185
187
190
191
191
192
190
227
228
228
228
229
229
231
232
232
232
231
230
228
229
229
230
229
230
232
232
232
232
232
230
201
141
119
124
125
131
122
68
47
52
77
126
175
198
194
190
176
150
135
123
86
71
52
93
151
136
83
66
46
49
58
59
59
48
74
111
178
192
188
179
120
103
102
134
152
125
222
243
245
244
244
244
244
244
245
245
245
246
246
246
247
246
245
245
245
245
245
244
244
243
241
240
239
238
235
230
219
200
167
141
145
152
161
163
164
168
177
186
191
191
187
183
186
186
188
189
184
182
184
189
189
225
226
226
227
227
227
227
227
227
227
227
227
227
228
227
227
229
229
230
232
233
233
234
232
204
139
118
118
124
131
132
91
45
52
82
128
175
196
192
189
181
175
157
143
88
61
66
99
137
142
99
97
57
82
77
68
53
66
80
119
176
196
182
126
78
93
111
165
125
128
216
240
242
243
242
242
242
241
242
242
243
244
244
245
245
244
244
244
244
243
243
243
241
240
239
238
238
236
235
232
228
220
207
184
155
145
147
153
156
168
177
186
192
190
191
187
187
192
194
194
187
187
189
189
190
225
226
226
226
225
226
226
226
227
225
224
223
224
226
227
228
229
230
230
232
233
234
234
231
203
141
112
116
123
129
137
125
59
47
71
121
176
199
195
189
177
161
138
99
63
60
60
94
113
156
125
97
78
68
76
78
67
92
104
109
171
188
131
81
71
96
133
170
99
126
210
240
242
241
242
241
241
240
240
241
241
241
241
242
243
242
243
243
243
243
242
242
241
240
239
238
238
235
234
234
233
232
229
219
200
172
146
141
141
146
160
178
188
192
192
188
187
190
191
192
193
188
186
189
195
221
223
224
225
225
226
227
228
228
228
227
226
226
226
229
229
230
231
232
230
230
230
230
228
202
141
111
117
123
127
144
155
105
43
66
129
176
185
193
189
180
163
127
96
64
60
62
54
111
138
104
101
98
68
72
75
74
71
86
101
170
144
82
74
91
120
150
155
88
123
200
238
242
241
242
242
241
240
240
240
241
241
241
242
243
243
243
243
244
243
242
242
242
242
241
239
238
237
236
235
237
238
236
233
227
211
181
140
126
133
147
160
181
190
190
184
177
178
182
179
177
176
181
186
186
221
223
222
222
224
225
227
228
228
229
229
228
230
231
233
234
233
231
230
230
230
230
230
229
205
142
109
116
124
127
148
166
146
67
69
125
172
181
187
191
177
150
128
117
81
47
48
67
106
101
95
109
91
57
50
67
65
61
62
108
174
97
72
80
100
147
162
160
97
146
202
239
242
242
242
243
242
241
242
242
241
241
241
241
243
243
243
244
244
244
243
243
243
242
240
239
238
238
236
238
238
236
236
234
232
226
214
197
163
146
152
161
173
179
174
161
159
160
155
156
161
171
177
180
180
219
219
219
220
224
225
226
228
229
230
230
231
232
233
233
233
232
232
232
232
232
233
234
232
204
146
111
117
122
133
152
168
164
115
57
131
175
182
188
189
179
169
156
127
96
61
46
65
95
101
123
116
85
87
75
63
63
75
121
175
189
164
91
95
124
141
163
145
110
170
204
238
243
243
243
243
242
241
241
241
242
243
243
243
244
244
244
244
244
244
243
243
242
241
240
238
236
233
233
231
232
231
229
227
227
225
223
218
211
195
177
176
164
159
157
152
152
148
148
158
157
159
168
181
182
221
221
223
224
226
227
228
229
230
231
232
232
233
231
230
231
232
233
235
236
236
236
235
228
194
134
110
117
123
134
155
167
185
200
110
125
177
186
192
192
190
179
162
132
93
60
80
90
96
122
126
91
80
71
74
72
64
128
188
191
195
185
102
103
125
133
149
142
143
188
208
237
245
244
244
243
242
241
241
242
242
242
242
243
244
245
244
244
243
244
242
243
242
240
238
235
233
231
229
229
228
224
221
221
221
221
225
225
221
217
208
188
174
168
158
155
150
154
141
127
123
133
156
174
178
222
223
224
225
226
227
228
230
231
231
231
231
228
227
227
230
234
236
236
237
237
236
236
223
183
124
112
118
129
139
159
174
216
229
202
126
185
190
192
195
188
184
172
139
116
71
75
77
121
142
117
87
69
60
52
64
67
148
193
195
208
190
102
97
122
132
145
135
152
199
209
238
244
244
244
243
242
242
243
242
242
242
242
242
244
245
245
244
243
242
240
239
237
236
236
234
231
229
226
224
222
220
220
221
223
222
221
221
221
222
222
215
204
185
168
154
154
152
142
108
106
106
131
147
156
225
223
223
225
225
226
228
229
230
230
229
231
229
228
230
232
235
237
237
237
237
237
236
218
173
128
120
124
129
146
161
200
228
236
228
179
178
178
186
193
187
190
189
165
116
99
84
103
120
126
113
104
66
57
51
59
108
180
203
203
222
202
105
114
129
151
158
154
176
207
215
240
243
242
242
242
242
242
243
242
242
243
242
243
243
243
242
241
240
239
236
234
232
231
231
231
229
227
225
224
225
223
223
226
225
222
219
218
223
225
227
227
223
212
193
176
154
152
146
142
129
119
122
132
144
220
220
218
219
220
222
222
224
227
228
230
231
232
232
233
235
236
237
237
237
237
237
230
207
160
128
126
129
131
149
172
215
233
238
237
216
178
188
185
192
191
190
191
179
135
107
107
84
92
103
118
110
88
63
73
105
170
204
211
210
225
193
106
127
149
157
163
160
179
209
225
241
242
242
242
242
242
242
241
241
241
242
241
241
240
240
238
237
236
235
232
230
228
230
229
228
228
228
228
227
227
229
229
230
229
230
228
225
228
230
229
229
228
224
214
200
179
151
156
154
150
139
142
150
157
217
216
216
217
218
219
221
223
227
229
230
231
233
234
234
235
236
236
236
237
237
232
225
196
141
123
128
129
132
148
189
225
236
237
237
224
182
189
185
178
184
196
193
185
163
130
112
86
96
99
98
115
103
68
101
155
201
214
217
213
220
176
136
137
156
158
168
171
192
212
231
242
242
243
242
242
241
240
240
240
240
240
240
239
238
237
237
237
235
235
236
234
233
235
233
234
235
235
236
235
235
234
235
235
233
231
231
232
232
233
230
229
227
223
222
217
207
190
175
177
175
171
169
170
158
218
218
220
221
220
219
221
224
225
227
229
231
231
233
235
235
236
236
237
236
232
230
225
194
134
118
122
127
137
155
204
229
236
236
236
228
191
189
188
184
198
204
203
190
163
134
106
84
102
113
105
112
107
82
146
190
207
214
217
212
199
171
162
161
165
181
180
185
202
220
235
241
242
242
242
242
241
241
241
240
241
240
240
240
239
238
239
239
239
238
237
237
238
238
239
240
239
240
240
239
238
237
236
236
235
233
232
233
234
233
233
232
229
228
227
226
221
214
209
201
200
192
172
163
155
219
221
222
223
222
219
220
222
223
225
227
228
229
230
231
234
235
235
236
232
230
231
227
198
138
117
119
129
150
191
220
232
236
236
235
231
192
184
186
197
208
204
205
198
178
154
140
114
123
127
121
122
122
111
173
196
207
213
211
189
167
184
179
165
169
182
191
202
217
225
237
241
241
240
241
242
242
241
241
240
239
239
238
239
239
241
240
241
241
241
241
241
240
240
241
242
243
243
242
239
239
239
239
238
237
237
236
237
237
235
234
233
232
231
231
230
228
223
220
211
204
195
172
154
142
215
217
219
221
221
220
219
220
223
224
226
227
228
229
229
231
232
234
232
228
229
233
226
195
134
116
120
134
180
214
229
233
234
234
234
230
195
192
197
207
216
205
206
209
186
167
151
137
133
140
140
149
143
151
183
198
209
212
204
153
168
193
183
173
174
185
198
207
225
232
238
239
238
239
240
240
241
242
241
241
239
239
239
239
240
241
241
241
241
239
240
239
239
239
241
242
243
243
243
243
243
243
243
242
240
239
239
239
238
238
237
236
233
230
228
228
224
217
213
210
206
196
187
173
148
214
216
220
221
221
222
223
225
225
226
228
229
230
229
227
228
230
230
228
229
229
231
226
196
129
119
127
152
206
229
235
234
233
233
232
233
194
189
197
213
218
209
207
210
199
180
164
156
144
142
155
150
153
169
192
200
210
213
191
166
199
203
188
178
180
191
195
211
228
232
238
236
235
236
237
239
240
240
241
240
240
240
240
240
241
241
240
239
236
238
240
241
242
242
242
243
244
244
244
243
243
242
243
243
241
239
234
231
232
235
236
234
231
228
228
229
228
225
218
212
208
203
197
189
171
